# xmcd
#
# Track frame offsets:
#	150
#	11500
#	16142
#	18087
#	33525
#	42205
#	91700
#	120237
#	177090
#	195522
#	200995
#	230622
#	251017
#	302592
#	320500
#
# Disc length: 4376 seconds
#
# Revision: 0
# Processed by: cddbd v1.5.1PL0 Copyright (c) Steve Scherf et al.
# Submitted via: dBpowerAMP V4.0
#
DISCID=b211160f
DTITLE=The Doors - Mystic Man
DYEAR=1900
DGENRE=Blues
TTITLE0=Whiskey Mystics N Men
TTITLE1=Soft Parade intro1
TTITLE2=Soft Parade intro2
TTITLE3=Whiskey Mystics N Men2
TTITLE4=Love Me Tender
TTITLE5=Rock Is Dead
TTITLE6=Me and the Devil Blues
TTITLE7=Rock is Dead2
TTITLE8=Queen of Magazines
TTITLE9=Pipeline
TTITLE10=RID3-Rock Me Baby
TTITLE11=Mystery Train
TTITLE12=Rock is Dead4
TTITLE13=Someday Soon (outtake morrisons hotel)
TTITLE14=Orange County Suite (poetry session 3/69)
EXTD=
EXTT0=
EXTT1=
EXTT2=
EXTT3=
EXTT4=
EXTT5=
EXTT6=
EXTT7=
EXTT8=
EXTT9=
EXTT10=
EXTT11=
EXTT12=
EXTT13=
EXTT14=
PLAYORDER=
